<svg xmlns="http://www.w3.org/2000/svg" width="13.749" height="15" viewBox="0 0 13.749 15">
  <path id="dice-d20" d="M8.706.23A1.615,1.615,0,0,0,7.04.23L1,3.837v7.324l6.039,3.607a1.617,1.617,0,0,0,1.665,0l6.044-3.607V3.837ZM4.322,6.055l-2.7,3.954V4.547l2.7,1.507ZM7.909,1.022l2.559,4.6H5.289ZM5.287,6.249h5.174L7.873,10.788,5.288,6.249Zm-.548.3,2.52,4.425-5.21-.479L4.739,6.55Zm6.269,0,2.757,3.944-5.275.471,2.519-4.415Zm.415-.494,2.7-1.509v5.37l-2.7-3.861Zm2.387-2.051L11.118,5.512,8.531.855l5.28,3.152ZM7.324.788,4.634,5.513l-2.7-1.507ZM2.174,11.134l5.386.491v2.693a.984.984,0,0,1-.2-.087Zm6.21,3.1a.978.978,0,0,1-.2.084v-2.7l5.379-.476-5.18,3.092Z" transform="translate(-1 0.001)"/>
</svg>
