<svg id="Icon" xmlns="http://www.w3.org/2000/svg" width="13.681" height="22.026" viewBox="0 0 13.681 22.026">
  <path id="_4" d="M121.338,55.926a.2.2,0,0,1-.074-.015c-.025-.01-1.031-.6-3.03-1.76q-.134-.082-.134-16.9a.213.213,0,0,1,.094-.159q5.511-3.183,5.539-3.188a.2.2,0,0,1,.055,0q.037,0,4.889,2.767,3.02,1.755,3.035,1.77l.035.035c.015.015.025,1.954.035,5.826q0,.052-2.41,4.23t-2.45,4.2Q121.373,55.926,121.338,55.926Zm-.188-.5-.04-16.324-2.648-1.532.055,16.309S121.15,55.43,121.15,55.43Zm.134-16.631,5.137-2.97L123.773,34.3l-5.127,2.955Zm1.929,9.937,3.491-6.044-.015-3.927-.615-.347-2.891,1.676Zm.015,3.739,2.529-1.463-2.544-1.478Zm2.821-1.716,3.58-6.2-2.688-1.572-3.58,6.218Zm3.649-6.59-.015-3.689-2.638-1.5.015,3.664Z" transform="translate(-118.1 -33.9)"/>
</svg>
