<svg xmlns="http://www.w3.org/2000/svg" xmlns:xlink="http://www.w3.org/1999/xlink" width="45" height="45" viewBox="0 0 45 45">
  <defs>
    <linearGradient id="linear-gradient" x1="0.104" y1="0.085" x2="0.855" y2="0.918" gradientUnits="objectBoundingBox">
      <stop offset="0" stop-color="#f2e6e6"/>
      <stop offset="0.498" stop-color="#e68c78"/>
      <stop offset="1" stop-color="#6b066c" stop-opacity="0.569"/>
    </linearGradient>
  </defs>
  <g id="Group_45" data-name="Group 45" transform="translate(-343 -47.041)">
    <g id="Component_3_3" data-name="Component 3 – 3" transform="translate(343 47.041)">
      <g id="Group_43" data-name="Group 43" transform="translate(6.249 6.249)">
        <g id="Group_42" data-name="Group 42" transform="translate(0 0)">
          <g id="Group_44" data-name="Group 44" transform="translate(0 0)">
            <rect id="Rectangle_20" data-name="Rectangle 20" width="32" height="32" rx="5" transform="translate(-0.249 -0.249)" fill="url(#linear-gradient)"/>
            <g id="shooting-star_1_" data-name="shooting-star (1)" transform="matrix(0.391, -0.921, 0.921, 0.391, 5.902, 20.373)">
              <path id="Path_14" data-name="Path 14" d="M.679.075,1.935,1.386a.275.275,0,0,0,.253.081.285.285,0,0,0,.206-.173L2.926,0A22.694,22.694,0,0,0,4.117,3.162C5.391,5.889,7.034,7.8,8.877,8.705l.268,1.72-.011.033-.83.891A13.268,13.268,0,0,1,0,2.743l.948.2a.275.275,0,0,0,.261-.085.3.3,0,0,0,.07-.275Zm5.07,6.806A16.908,16.908,0,0,1,3.218,2.534a.285.285,0,0,0-.228-.186.278.278,0,0,0-.265.121.306.306,0,0,0-.024.3,17.479,17.479,0,0,0,2.622,4.5.274.274,0,0,0,.393.023A.3.3,0,0,0,5.749,6.881Zm1.927,3.584c.1.045.2.088.3.129a.279.279,0,0,0,.367-.166.3.3,0,0,0-.159-.382q-.143-.059-.291-.124a.278.278,0,0,0-.37.157A.3.3,0,0,0,7.676,10.465ZM6.839,8.018q-.15-.134-.294-.274a.274.274,0,0,0-.4.015.3.3,0,0,0,.014.417c.1.1.207.2.312.29a.274.274,0,0,0,.4-.032A.3.3,0,0,0,6.839,8.018ZM1.235,3.66a.3.3,0,0,0-.136.392,12.331,12.331,0,0,0,5.425,5.84.277.277,0,0,0,.382-.122.3.3,0,0,0-.117-.4A11.763,11.763,0,0,1,1.611,3.8a.287.287,0,0,0-.16-.152.272.272,0,0,0-.216.01Z" transform="translate(0 0)" fill="#fff"/>
              <path id="Path_15" data-name="Path 15" d="M1.841,2.038,1.389,2.9.937,2.038A.285.285,0,0,0,.824,1.92L0,1.449.825.978A.285.285,0,0,0,.938.86L1.389,0l.452.86a.285.285,0,0,0,.113.118l.824.472-.825.472A.285.285,0,0,0,1.841,2.038Z" transform="translate(6.791 0.023)" fill="#fff"/>
              <path id="Path_16" data-name="Path 16" d="M.937,2.038A.285.285,0,0,0,.824,1.92L0,1.449.825.978A.285.285,0,0,0,.938.86L1.389,0l.452.861a.285.285,0,0,0,.113.118l.824.47-.824.472a.285.285,0,0,0-.113.118l-.452.86Z" transform="translate(0.746 12.71)" fill="#fff"/>
              <path id="Path_17" data-name="Path 17" d="M5.045,5.859,3.972,8.239H3.935L2.865,5.863a.593.593,0,0,0-.449-.346l-2.4-.383C0,5.1,0,5.084.009,5.069l.763-.815A.258.258,0,0,0,.8,4.23l.955-1.023a.637.637,0,0,0,.163-.541L1.507.041A.035.035,0,0,1,1.519,0l2.154,1.23a.55.55,0,0,0,.281.076.558.558,0,0,0,.283-.078L6.374,0c.032.015.028.033.028.039l-.41,2.629a.639.639,0,0,0,.166.54L7.9,5.071a.042.042,0,0,1,.008.043l-2.419.4a.589.589,0,0,0-.443.341Z" transform="translate(8.002 7.673)" fill="#fff"/>
              <path id="Path_18" data-name="Path 18" d="M1.954,1.921a.285.285,0,0,0-.113.118l-.452.86L.937,2.038A.285.285,0,0,0,.824,1.92L0,1.449.825.978A.285.285,0,0,0,.938.86L1.389,0l.452.86a.285.285,0,0,0,.113.118l.824.472Z" transform="translate(11.98 2.382)" fill="#fff"/>
            </g>
          </g>
        </g>
      </g>
      <rect id="Rectangle_21" data-name="Rectangle 21" width="45" height="45" fill="none"/>
    </g>
  </g>
</svg>
