<svg id="R" xmlns="http://www.w3.org/2000/svg" width="14.67" height="25.894" viewBox="0 0 14.67 25.894">
  <path id="_18" d="M117.784,32.094h-.057c0-.01-.005-.016-.021-.021s-1.062-.617-3.151-1.829a.186.186,0,0,1-.1-.166l-.057-17.5a.222.222,0,0,1,.1-.155Q125.279,6.2,125.339,6.2c.036,0,.586.306,1.648.928s1.6.933,1.606.938h.016l.026.057q.031,0,.057,9.866a.176.176,0,0,1-.1.166l-3.487,2.011c2.632,3.006,3.959,4.534,3.964,4.576a.211.211,0,0,1-.041.124l-1.487,2.011h-.016a.046.046,0,0,1-.026.041.143.143,0,0,1-.067.016v.016a.842.842,0,0,0-.1-.021c-.026-.005-.57-.311-1.622-.928s-1.591-.928-1.606-.948l-2.5-2.866-1.85,1.073.016,7.612a.176.176,0,0,1-.1.166c-1.223.7-1.85,1.057-1.886,1.057Zm-.192-.518-.041-17.059-2.757-1.6.041,17.048Zm.14-17.38,10.364-6-2.757-1.6-10.364,5.985Zm1.99,2.938,3.658-2.114V13.434l-3.658,2.114Zm.01,3.633,6.6-3.814-2.757-1.6-3.84,2.228Zm6.752,5.244-3.871-4.41-.684.4,2.435,2.783Zm.041-9.379-.016-5.011-2.757,1.586v1.808Z" transform="translate(-114.4 -6.2)"/>
</svg>
