<svg id="Icon" xmlns="http://www.w3.org/2000/svg" width="15" height="25" viewBox="0 0 15 25">
  <path id="_19" d="M121.533,31.1h-.06l-3.326-1.786a.169.169,0,0,1-.1-.15v-2a.223.223,0,0,1,.1-.15l9.283-4.942V20.541q-5.853,3.114-5.913,3.116-.041,0-3.4-1.786a.173.173,0,0,1-.087-.16L118,12.267a.218.218,0,0,1,.087-.145Q129.41,6.1,129.457,6.1c.038,0,1.179.6,3.413,1.8h.016c0,.01,0,.015.005.02s.011.005.022.005l.027.11c.011,0,.016.665.016,2a.19.19,0,0,1-.1.16l-9.283,4.932v1.546q5.853-3.114,5.913-3.116c.043,0,.614.3,1.728.9s1.674.9,1.685.905h.016l.027.055q.033,0,.06,9.524a.169.169,0,0,1-.1.16q-11.291,5.995-11.364,6Zm-.223-7.953-.027-9-2.891-1.556.027,9.014Zm.033,7.453-.016-1.556-2.891-1.561v1.571Zm.147-16.777,10.87-5.772-2.9-1.546-10.875,5.777Zm.043,14.9,8.989-4.782-2.891-1.546-8.989,4.782Zm2.054-8.553,8.783-4.677-2.886-1.541-5.908,3.141.011,3.076Zm7.136,3.466-.016-4.837-2.891,1.531v1.746Z" transform="translate(-118 -6.1)"/>
</svg>
